<svg xmlns="http://www.w3.org/2000/svg" xmlns:xlink="http://www.w3.org/1999/xlink" width="2000" zoomAndPan="magnify" viewBox="0 0 1500 1499.999933" height="2000" preserveAspectRatio="xMidYMid meet" version="1.0"><defs><clipPath id="69bff1e3d3"><path d="M 139.6875 0 L 1360.6875 0 L 1360.6875 1500 L 139.6875 1500 Z M 139.6875 0 " clip-rule="nonzero"/></clipPath></defs><rect x="-150" width="1800" fill="#ffffff" y="-149.999993" height="1799.99992" fill-opacity="1"/><rect x="-150" width="1800" fill="#ffffff" y="-149.999993" height="1799.99992" fill-opacity="1"/><g clip-path="url(#69bff1e3d3)"><path fill="#000000" d="M 1321.835938 511.421875 C 1313.136719 518.171875 1159.539062 604.695312 1159.539062 797.085938 C 1159.539062 1019.617188 1354.988281 1098.34375 1360.835938 1100.292969 C 1359.9375 1105.089844 1329.789062 1208.109375 1257.789062 1313.078125 C 1193.585938 1405.449219 1126.539062 1497.671875 1024.539062 1497.671875 C 922.539062 1497.671875 896.289062 1438.4375 778.539062 1438.4375 C 663.789062 1438.4375 622.988281 1499.621094 529.6875 1499.621094 C 436.386719 1499.621094 371.289062 1414.144531 296.4375 1309.179688 C 209.738281 1185.914062 139.6875 994.425781 139.6875 812.679688 C 139.6875 521.171875 329.289062 366.566406 515.886719 366.566406 C 615.039062 366.566406 697.6875 431.648438 759.9375 431.648438 C 819.1875 431.648438 911.585938 362.667969 1024.386719 362.667969 C 1067.136719 362.667969 1220.738281 366.566406 1321.835938 511.421875 Z M 970.835938 239.257812 C 1017.488281 183.925781 1050.488281 107.148438 1050.488281 30.371094 C 1050.488281 19.722656 1049.585938 8.925781 1047.636719 0.230469 C 971.738281 3.078125 881.4375 50.765625 826.988281 113.894531 C 784.238281 162.480469 744.335938 239.257812 744.335938 317.082031 C 744.335938 328.78125 746.289062 340.476562 747.1875 344.222656 C 751.988281 345.125 759.789062 346.175781 767.585938 346.175781 C 835.6875 346.175781 921.335938 300.589844 970.835938 239.257812 Z M 970.835938 239.257812 " fill-opacity="1" fill-rule="nonzero"/></g></svg>